<?xml version="1.0" encoding="utf-8"?>
<!-- Generator: Adobe Illustrator 28.2.0, SVG Export Plug-In . SVG Version: 6.00 Build 0)  -->
<svg version="1.1" id="Layer_1" xmlns="http://www.w3.org/2000/svg" xmlns:xlink="http://www.w3.org/1999/xlink" x="0px" y="0px"
	 viewBox="0 0 277.9 318.5" style="enable-background:new 0 0 277.9 318.5;" xml:space="preserve">
<style type="text/css">
	.st0{fill:#FFFFFF;}
</style>
<g>
	<path class="st0" d="M264.7,318.5H13.2c-7.3,0-13.2-5.9-13.2-13.2V13.2C0,5.9,5.9,0,13.2,0h251.6c7.3,0,13.2,5.9,13.2,13.2v292.2
		C277.9,312.6,272,318.5,264.7,318.5z M13.2,5.2c-4.4,0-8,3.6-8,8v292.2c0,4.4,3.6,8,8,8h251.6c4.4,0,8-3.6,8-8V13.2
		c0-4.4-3.6-8-8-8H13.2z"/>
</g>
<g>
	<g>
		<path class="st0" d="M138.9,33.2h-23.5c-3.4,0-6.2,2.8-6.2,6.2v69.2L76.7,41.4c-2.6-5.5-7.9-8.5-13.2-8.3H40.2
			c-3.4,0-6.2,2.8-6.2,6.2V182c0,3.4,2.8,6.2,6.2,6.2h23.5c3.4,0,6.2-2.8,6.2-6.2v-71.3l33.5,69.3c2.2,4.5,6.1,7.3,10.3,8.1
			c0.5,0.1,1,0.2,1.6,0.2h23.5c3.4,0,6.2-2.8,6.2-6.2V39.4C145.1,35.9,142.4,33.2,138.9,33.2z"/>
		<path class="st0" d="M240.3,69.1c3.4,0,6.2-2.8,6.2-6.2V39.4c0-3.4-2.8-6.2-6.2-6.2h-54.9H174h-12.2c-3.4,0-6.2,2.8-6.2,6.2V182
			c0,3.4,2.8,6.2,6.2,6.2H174h11.3h54.9c3.4,0,6.2-2.8,6.2-6.2v-23.5c0-3.4-2.8-6.2-6.2-6.2h-48.7v-23.1h42.6c3.4,0,6.2-2.8,6.2-6.2
			v-19c0-3.4-2.8-6.2-6.2-6.2h-42.6V69.1H240.3z"/>
	</g>
	<g>
		<path class="st0" d="M61.1,204.4h-6.3c-0.4,0-0.8,0.3-0.8,0.8V222l-13.8-17.6c-0.1-0.2-0.4-0.3-0.6-0.3h-4.8
			c-0.4,0-0.8,0.3-0.8,0.8V237c0,0.4,0.3,0.8,0.8,0.8h6.3c0.2,0,0.4-0.1,0.5-0.2s0.2-0.3,0.2-0.5l-0.1-17.4l13.9,18.1
			c0.1,0.2,0.4,0.3,0.6,0.3H61c0.4,0,0.8-0.3,0.8-0.8v-32.1C61.8,204.7,61.5,204.4,61.1,204.4z"/>
		<path class="st0" d="M89.9,219.8c-0.5-1.6-1.3-3.1-2.4-4.3s-2.4-2.2-4-2.9s-3.5-1-5.6-1c-4.1,0-7.2,1.2-9.4,3.6
			c-2.2,2.4-3.3,5.7-3.3,9.8c0,1.9,0.3,3.6,0.8,5.2c0.5,1.6,1.3,3.1,2.4,4.3s2.4,2.2,4,2.9s3.5,1,5.6,1c2,0,3.8-0.3,5.3-0.9
			c1.6-0.6,3-1.5,4-2.7c1.1-1.2,1.9-2.6,2.5-4.3c0.6-1.6,0.9-3.5,0.9-5.5C90.7,223.2,90.4,221.4,89.9,219.8z M82.7,225.1
			c0,5.8-2.7,6.5-4.7,6.5c-0.9,0-1.6-0.2-2.2-0.5s-1.1-0.8-1.4-1.3c-0.4-0.6-0.7-1.3-0.9-2.1c-0.2-0.8-0.3-1.7-0.3-2.6
			c0-2.4,0.4-4.1,1.3-5.1c0.8-1,2-1.5,3.5-1.5c0.9,0,1.6,0.2,2.2,0.5s1.1,0.7,1.4,1.3c0.4,0.6,0.7,1.3,0.8,2.1
			C82.6,223.1,82.7,224.1,82.7,225.1z"/>
		<path class="st0" d="M92.2,219.2H95v11.2c0,2.8,0.6,4.8,1.8,6.1c1.2,1.3,3.1,2,5.7,2c1.2,0,2.5-0.2,3.8-0.5s2.4-0.7,3.4-1.1
			c0.3-0.2,0.5-0.5,0.4-0.9l-1.3-4.8c-0.1-0.2-0.2-0.4-0.4-0.5c-0.2-0.1-0.4-0.1-0.6,0c-0.5,0.2-1,0.4-1.4,0.5s-1,0.1-1.6,0.1
			c-1,0-1.4-0.4-1.5-0.8c-0.2-0.5-0.5-1.6-0.5-3.8v-7.5h5.6c0.4,0,0.8-0.3,0.8-0.8v-5.3c0-0.4-0.3-0.8-0.8-0.8h-5.6v-7.4
			c0-0.4-0.3-0.8-0.8-0.8h-6.3c-0.4,0-0.8,0.3-0.8,0.8v7.4H92c-0.4,0-0.8,0.3-0.8,0.8v5.3C91.4,218.8,91.8,219.2,92.2,219.2z"/>
		<path class="st0" d="M123.5,238.4c2.1,0,4.1-0.3,5.9-0.9c1.8-0.6,3.3-1.3,4.4-2.1c0.3-0.2,0.4-0.6,0.2-1l-2.2-4
			c-0.1-0.2-0.3-0.3-0.5-0.4c-0.2,0-0.4,0-0.6,0.1c-0.5,0.4-1.4,0.8-2.4,1.2s-2.2,0.6-3.6,0.6c-2.1,0-3.7-0.4-4.6-1.3
			c-0.8-0.7-1.2-1.8-1.5-3.3h15c0.4,0,0.7-0.2,0.7-0.6c0.2-0.8,0.3-1.7,0.4-2.5c0.1-0.8,0.1-1.5,0.1-2.2c0-2-0.3-3.6-1-5
			c-0.6-1.4-1.5-2.5-2.6-3.3c-1-0.8-2.2-1.4-3.6-1.7c-1.3-0.3-2.6-0.5-3.9-0.5c-4.1,0-7.3,1.2-9.6,3.4c-2.3,2.3-3.4,5.6-3.4,10
			c0,4.1,1,7.4,3,9.7C116,237.2,119.2,238.4,123.5,238.4z M119,222.1c0.2-1,0.6-1.9,1.3-2.6c0.8-0.9,1.9-1.3,3.6-1.3
			c1.4,0,2.4,0.4,3,1.2c0.5,0.7,0.8,1.6,0.8,2.7L119,222.1L119,222.1z"/>
		<path class="st0" d="M139.5,236.7c1,0.4,2.4,0.8,4.3,1.1c1.8,0.3,3.9,0.5,6.2,0.5c2,0,3.9-0.3,5.5-0.9c1.7-0.6,3.1-1.6,4.2-2.8
			c1.2-1.2,2.1-2.7,2.7-4.4c0.6-1.7,0.9-3.7,0.9-5.9c0-4-0.9-7.2-2.6-9.3c-1.8-2.2-4.3-3.3-7.6-3.3c-1.4,0-2.8,0.3-4,0.8
			c-0.9,0.4-1.6,0.8-2.3,1.4v-8.7c0-0.4-0.3-0.8-0.8-0.8h-6.3c-0.4,0-0.8,0.3-0.8,0.8V236C139.1,236.3,139.3,236.6,139.5,236.7z
			 M146.9,231.1v-9.3c0.4-1,0.9-1.8,1.6-2.3c0.7-0.5,1.6-0.8,2.8-0.8c1.3,0,2.3,0.5,3,1.4c0.7,1,1.1,2.5,1.1,4.5c0,6.3-2.9,7-5.1,7
			c-0.7,0-1.5,0-2.1-0.1C147.7,231.3,147.3,231.2,146.9,231.1z"/>
		<path class="st0" d="M183.8,237.5c1.6-0.6,3-1.5,4-2.7c1.1-1.2,1.9-2.6,2.5-4.3c0.6-1.6,0.9-3.5,0.9-5.5c0-1.9-0.3-3.7-0.8-5.3
			s-1.3-3.1-2.4-4.3c-1.1-1.2-2.4-2.2-4-2.9s-3.5-1-5.6-1c-4.1,0-7.2,1.2-9.4,3.6c-2.2,2.4-3.3,5.7-3.3,9.8c0,1.9,0.3,3.6,0.8,5.2
			c0.5,1.6,1.3,3.1,2.4,4.3c1.1,1.2,2.4,2.2,4,2.9s3.5,1,5.6,1C180.4,238.4,182.2,238.1,183.8,237.5z M174.8,229.8
			c-0.4-0.6-0.7-1.3-0.9-2.1s-0.3-1.7-0.3-2.6c0-2.4,0.4-4.1,1.3-5.1c0.8-1,2-1.5,3.5-1.5c0.9,0,1.6,0.2,2.2,0.5
			c0.6,0.3,1.1,0.7,1.4,1.3c0.4,0.6,0.7,1.3,0.8,2.1c0.2,0.8,0.3,1.8,0.3,2.8c0,5.8-2.7,6.5-4.7,6.5c-0.9,0-1.6-0.2-2.2-0.5
			C175.7,230.8,175.2,230.3,174.8,229.8z"/>
		<path class="st0" d="M215.8,215.5c-1.1-1.2-2.4-2.2-4-2.9s-3.5-1-5.6-1c-4.1,0-7.2,1.2-9.4,3.6c-2.2,2.4-3.3,5.7-3.3,9.8
			c0,1.9,0.3,3.6,0.8,5.2c0.5,1.6,1.3,3.1,2.4,4.3c1.1,1.2,2.4,2.2,4,2.9s3.5,1,5.6,1c2,0,3.8-0.3,5.3-0.9c1.6-0.6,3-1.5,4-2.7
			c1.1-1.2,1.9-2.6,2.5-4.3c0.6-1.6,0.9-3.5,0.9-5.5c0-1.9-0.3-3.7-0.8-5.3C217.7,218.2,216.9,216.7,215.8,215.5z M211,225.1
			c0,5.8-2.7,6.5-4.7,6.5c-0.9,0-1.6-0.2-2.2-0.5c-0.6-0.3-1.1-0.8-1.4-1.3c-0.4-0.6-0.7-1.3-0.9-2.1s-0.3-1.7-0.3-2.6
			c0-2.4,0.4-4.1,1.3-5.1c0.8-1,2-1.5,3.5-1.5c0.9,0,1.6,0.2,2.2,0.5c0.6,0.3,1.1,0.7,1.4,1.3c0.4,0.6,0.7,1.3,0.8,2.1
			C210.9,223.1,211,224.1,211,225.1z"/>
		<path class="st0" d="M87.4,271.6H74.2v-5.7h11.7c0.4,0,0.8-0.3,0.8-0.8v-5.9c0-0.4-0.3-0.8-0.8-0.8H74.2V253h12.9
			c0.4,0,0.8-0.3,0.8-0.8v-5.9c0-0.4-0.3-0.8-0.8-0.8H66.8c-0.4,0-0.8,0.3-0.8,0.8v31.9c0,0.4,0.3,0.8,0.8,0.8h20.6
			c0.4,0,0.8-0.3,0.8-0.8v-5.9C88.1,271.9,87.8,271.6,87.4,271.6z"/>
		<path class="st0" d="M115.5,274.1c-0.9-1.3-2-2.8-3.1-4.2c-1-1.3-2.1-2.7-3.3-4l8.4-11c0.2-0.2,0.2-0.5,0.1-0.8s-0.4-0.4-0.7-0.4
			h-7.5c-0.2,0-0.5,0.1-0.6,0.3l-4.4,6.4L100,254c-0.1-0.2-0.4-0.3-0.6-0.3h-7.8c-0.3,0-0.5,0.2-0.7,0.4c-0.1,0.3-0.1,0.6,0.1,0.8
			l8.3,11.1c-1,1.1-2,2.4-3,3.8c-1.2,1.5-2.3,3-3.2,4.5c-1,1.5-1.8,2.7-2.3,3.8c-0.1,0.2-0.1,0.5,0,0.8c0.1,0.2,0.4,0.4,0.7,0.4h7.4
			c0.3,0,0.5-0.1,0.7-0.4c0.4-0.8,1-1.7,1.5-2.6c0.6-0.9,1.2-1.9,1.8-2.8c0.5-0.7,0.9-1.3,1.4-1.8c0.5,0.6,1,1.3,1.5,2
			c0.7,1,1.3,2,1.9,2.9s1,1.7,1.4,2.4c0.1,0.2,0.4,0.4,0.7,0.4h7.8c0.3,0,0.5-0.1,0.7-0.4c0.1-0.2,0.1-0.5,0-0.8
			C117.2,276.8,116.4,275.5,115.5,274.1z"/>
		<path class="st0" d="M134.1,252.9c-1.8,0-3.3,0.3-4.7,1c-1.1,0.5-2.1,1.3-3,2.3l-0.5-2c-0.1-0.3-0.4-0.6-0.7-0.6h-4.5
			c-0.4,0-0.8,0.3-0.8,0.8v33c0,0.4,0.3,0.8,0.8,0.8h6.3c0.4,0,0.8-0.3,0.8-0.8V279c0.4,0.2,0.9,0.3,1.3,0.4
			c0.8,0.2,1.8,0.3,2.9,0.3c2,0,3.8-0.3,5.3-1c1.6-0.7,2.9-1.6,4-2.9c1.1-1.2,1.9-2.7,2.4-4.5c0.5-1.7,0.8-3.6,0.8-5.7
			c0-4.4-0.9-7.6-2.6-9.7C140.1,254,137.5,252.9,134.1,252.9z M136.4,265.5c0,2.6-0.4,4.6-1.3,5.7c-0.8,1.1-2.1,1.6-4,1.6
			c-0.9,0-1.6-0.1-2.1-0.3c-0.4-0.2-0.9-0.4-1.2-0.7V263c0.4-1.2,0.9-2,1.5-2.6c0.6-0.5,1.6-0.8,2.9-0.8c1.5,0,2.6,0.5,3.2,1.4
			C136,262.2,136.4,263.7,136.4,265.5z"/>
		<path class="st0" d="M167.1,255.1c-1-0.8-2.2-1.4-3.6-1.7c-1.3-0.3-2.6-0.5-3.9-0.5c-4.1,0-7.3,1.2-9.6,3.4
			c-2.3,2.3-3.4,5.6-3.4,10c0,4.1,1,7.4,3,9.7c2,2.4,5.2,3.6,9.5,3.6c2.1,0,4.1-0.3,5.9-0.9c1.8-0.6,3.3-1.3,4.4-2.1
			c0.3-0.2,0.4-0.6,0.2-1l-2.2-4c-0.1-0.2-0.3-0.3-0.5-0.4c-0.2,0-0.4,0-0.6,0.1c-0.5,0.4-1.4,0.8-2.4,1.2c-1,0.4-2.2,0.6-3.6,0.6
			c-2.1,0-3.7-0.4-4.6-1.3c-0.8-0.7-1.2-1.8-1.5-3.3h15c0.4,0,0.7-0.2,0.7-0.6c0.2-0.8,0.3-1.7,0.4-2.5c0.1-0.8,0.1-1.5,0.1-2.2
			c0-2-0.3-3.6-1-5C169.1,257,168.2,255.9,167.1,255.1z M154.7,263.3c0.2-1,0.6-1.9,1.3-2.6c0.8-0.9,1.9-1.3,3.6-1.3
			c1.4,0,2.4,0.4,3,1.2c0.5,0.7,0.8,1.6,0.8,2.7L154.7,263.3L154.7,263.3z"/>
		<path class="st0" d="M190.7,253.6c-2.9-0.9-5.1-0.6-6.9,0.6c-0.8,0.5-1.5,1.3-2.1,2.1l-0.4-2.1c-0.1-0.4-0.4-0.6-0.7-0.6h-5
			c-0.4,0-0.8,0.3-0.8,0.8v23.9c0,0.4,0.3,0.8,0.8,0.8h6.3c0.4,0,0.8-0.3,0.8-0.8v-15.1c0.2-0.8,0.7-1.4,1.4-1.9s1.7-0.8,2.8-0.8
			c0.8,0,1.6,0.1,2.5,0.4c0.2,0.1,0.4,0,0.6-0.1c0.2-0.1,0.3-0.3,0.4-0.5l0.9-5.9C191.3,254,191,253.7,190.7,253.6z"/>
		<path class="st0" d="M210.8,272.4c-0.1-0.2-0.2-0.4-0.4-0.5s-0.4-0.1-0.6,0c-0.5,0.2-1,0.4-1.4,0.5s-1,0.1-1.6,0.1
			c-1,0-1.4-0.4-1.5-0.8c-0.2-0.5-0.5-1.6-0.5-3.8v-7.5h5.6c0.4,0,0.8-0.3,0.8-0.8v-5.3c0-0.4-0.3-0.8-0.8-0.8h-5.6v-7.4
			c0-0.4-0.3-0.8-0.8-0.8h-6.3c-0.4,0-0.8,0.3-0.8,0.8v7.4H194c-0.4,0-0.8,0.3-0.8,0.8v5.3c0,0.4,0.3,0.8,0.8,0.8h2.9v11.2
			c0,2.8,0.6,4.8,1.8,6.1c1.2,1.3,3.1,2,5.7,2c1.2,0,2.5-0.2,3.8-0.5s2.4-0.7,3.4-1.1c0.3-0.2,0.5-0.5,0.4-0.9L210.8,272.4z"/>
		<path class="st0" d="M246.4,236.6c-0.5-1-1.2-2.1-1.9-3.4c-0.8-1.2-1.6-2.4-2.5-3.7s-1.9-2.5-2.8-3.6c-0.8-0.9-1.5-1.7-2.3-2.4
			c1-1,2-2,2.9-3c1.1-1.1,2.1-2.3,3.2-3.5c1-1.2,2.1-2.3,3.1-3.6c0.2-0.2,0.2-0.5,0.1-0.8c-0.1-0.3-0.4-0.4-0.7-0.4h-8
			c-0.2,0-0.4,0.1-0.6,0.3c-0.4,0.5-0.9,1.1-1.5,1.8s-1.2,1.4-1.9,2.2l-2.1,2.3c-0.2,0.3-0.5,0.5-0.7,0.8V205c0-0.4-0.3-0.8-0.8-0.8
			h-6.7c-0.4,0-0.8,0.3-0.8,0.8v32c0,0.4,0.3,0.8,0.8,0.8h6.7c0.4,0,0.8-0.3,0.8-0.8v-8.8c0.6,0.6,1.1,1.2,1.7,1.9
			c1,1.2,1.9,2.5,2.8,3.8c0.9,1.3,1.6,2.5,2.2,3.5c0.1,0.2,0.4,0.4,0.6,0.4h7.7c0.3,0,0.5-0.1,0.6-0.4
			C246.5,237.2,246.5,236.9,246.4,236.6z"/>
	</g>
</g>
</svg>
